{
  "accessors": [
    {
      "bufferView": 2,
      "componentType": 5126,
      "count": 306,
      "max": [
        0.19175000488758087,
        0.6405199766159058,
        1.0806699991226196
      ],
      "min": [
        -1.0893000364303589,
        -0.6405199766159058,
        0.0
      ],
      "type": "VEC3"
    },
    {
      "bufferView": 2,
      "byteOffset": 3672,
      "componentType": 5126,
      "count": 306,
      "max": [
        0.9943404793739319,
        0.9781090617179871,
        1.0
      ],
      "min": [
        -0.9943712949752808,
        -0.9993704557418823,
        -1.0
      ],
      "type": "VEC3"
    },
    {
      "bufferView": 1,
      "componentType": 5126,
      "count": 306,
      "max": [
        0.9998499751091003,
        0.7139899730682373
      ],
      "min": [
        0.0001500000071246177,
        0.0001500000071246177
      ],
      "type": "VEC2"
    },
    {
      "bufferView": 0,
      "componentType": 5125,
      "count": 492,
      "type": "SCALAR"
    }
  ],
  "asset": {
    "extras": {
      "author": "bruyere (https://sketchfab.com/guurme)",
      "license": "CC-BY-4.0 (http://creativecommons.org/licenses/by/4.0/)",
      "source": "https://sketchfab.com/3d-models/tabouret-f0432ec5edef4161b27254c71d6e87d6",
      "title": "tabouret"
    },
    "generator": "Sketchfab-12.65.0",
    "version": "2.0"
  },
  "bufferViews": [
    {
      "buffer": 0,
      "byteLength": 1968,
      "name": "floatBufferViews",
      "target": 34963
    },
    {
      "buffer": 0,
      "byteLength": 2448,
      "byteOffset": 1968,
      "byteStride": 8,
      "name": "floatBufferViews",
      "target": 34962
    },
    {
      "buffer": 0,
      "byteLength": 7344,
      "byteOffset": 4416,
      "byteStride": 12,
      "name": "floatBufferViews",
      "target": 34962
    }
  ],
  "buffers": [
    {
      "byteLength": 11760,
      "uri": "scene.bin"
    }
  ],
  "images": [
    {
      "uri": "textures/tabouret_baseColor.png"
    }
  ],
  "materials": [
    {
      "doubleSided": true,
      "name": "tabouret",
      "pbrMetallicRoughness": {
        "baseColorTexture": {
          "index": 0
        },
        "metallicFactor": 0.0,
        "roughnessFactor": 0.6
      }
    }
  ],
  "meshes": [
    {
      "name": "Circle_0",
      "primitives": [
        {
          "attributes": {
            "NORMAL": 1,
            "POSITION": 0,
            "TEXCOORD_0": 2
          },
          "indices": 3,
          "material": 0,
          "mode": 4
        }
      ]
    }
  ],
  "nodes": [
    {
      "children": [
        1
      ],
      "matrix": [
        1.0,
        0.0,
        0.0,
        0.0,
        0.0,
        2.220446049250313e-16,
        -1.0,
        0.0,
        0.0,
        1.0,
        2.220446049250313e-16,
        0.0,
        0.0,
        0.0,
        0.0,
        1.0
      ],
      "name": "Sketchfab_model"
    },
    {
      "children": [
        2
      ],
      "name": "Root"
    },
    {
      "children": [
        3
      ],
      "matrix": [
        1.0,
        0.0,
        0.0,
        0.0,
        0.0,
        1.0,
        0.0,
        0.0,
        0.0,
        0.0,
        1.0,
        0.0,
        0.44877000000000006,
        0.0,
        0.0,
        1.0
      ],
      "name": "Circle"
    },
    {
      "mesh": 0,
      "name": "Circle_0"
    }
  ],
  "samplers": [
    {
      "magFilter": 9729,
      "minFilter": 9987,
      "wrapS": 10497,
      "wrapT": 10497
    }
  ],
  "scene": 0,
  "scenes": [
    {
      "name": "Sketchfab_Scene",
      "nodes": [
        0
      ]
    }
  ],
  "textures": [
    {
      "sampler": 0,
      "source": 0
    }
  ]
}
