{
    "asset" : {
        "generator" : "Khronos glTF Blender I/O v3.2.43",
        "version" : "2.0"
    },
    "scene" : 0,
    "scenes" : [
        {
            "name" : "Scene",
            "nodes" : [
                0,
                1,
                2
            ]
        }
    ],
    "nodes" : [
        {
            "mesh" : 0,
            "name" : "Cube",
            "rotation" : [
                0,
                -0.7071068286895752,
                0,
                0.7071068286895752
            ],
            "scale" : [
                5.372625827789307,
                0.47318536043167114,
                3.0243639945983887
            ]
        },
        {
            "mesh" : 1,
            "name" : "Cube.001",
            "rotation" : [
                0,
                -0.7071068286895752,
                0,
                0.7071068286895752
            ],
            "scale" : [
                5.372625827789307,
                0.47318536043167114,
                3.0243639945983887
            ]
        },
        {
            "mesh" : 2,
            "name" : "Cube.002",
            "rotation" : [
                0,
                0.007441085763275623,
                0,
                0.999972403049469
            ],
            "scale" : [
                1,
                0.5211012959480286,
                1
            ],
            "translation" : [
                0.13785287737846375,
                0.6695370078086853,
                -4.131427764892578
            ]
        }
    ],
    "materials" : [
        {
            "doubleSided" : true,
            "name" : "Material.002",
            "pbrMetallicRoughness" : {
                "baseColorFactor" : [
                    0.03656429052352905,
                    0.12671668827533722,
                    0.1375780701637268,
                    1
                ],
                "metallicFactor" : 0,
                "roughnessFactor" : 0.5
            }
        },
        {
            "doubleSided" : true,
            "name" : "Material.001",
            "pbrMetallicRoughness" : {
                "baseColorFactor" : [
                    0.6382656097412109,
                    0.6382656097412109,
                    0.6382656097412109,
                    1
                ],
                "metallicFactor" : 0,
                "roughnessFactor" : 0.5
            }
        },
        {
            "doubleSided" : true,
            "name" : "Material.003",
            "pbrMetallicRoughness" : {
                "baseColorFactor" : [
                    0.21388083696365356,
                    0.37574368715286255,
                    0.3652424216270447,
                    1
                ],
                "metallicFactor" : 0,
                "roughnessFactor" : 0.5
            }
        }
    ],
    "meshes" : [
        {
            "name" : "Cube",
            "primitives" : [
                {
                    "attributes" : {
                        "POSITION" : 0,
                        "NORMAL" : 1,
                        "TEXCOORD_0" : 2
                    },
                    "indices" : 3,
                    "material" : 0
                }
            ]
        },
        {
            "name" : "Cube.001",
            "primitives" : [
                {
                    "attributes" : {
                        "POSITION" : 4,
                        "NORMAL" : 5,
                        "TEXCOORD_0" : 6
                    },
                    "indices" : 7,
                    "material" : 1
                }
            ]
        },
        {
            "name" : "Cube.002",
            "primitives" : [
                {
                    "attributes" : {
                        "POSITION" : 8,
                        "NORMAL" : 9,
                        "TEXCOORD_0" : 10
                    },
                    "indices" : 11,
                    "material" : 2
                }
            ]
        }
    ],
    "accessors" : [
        {
            "bufferView" : 0,
            "componentType" : 5126,
            "count" : 8512,
            "max" : [
                1.0120669603347778,
                1.2629724740982056,
                1.0164024829864502
            ],
            "min" : [
                -0.4875059723854065,
                -1.0164024829864502,
                -1.0164024829864502
            ],
            "type" : "VEC3"
        },
        {
            "bufferView" : 1,
            "componentType" : 5126,
            "count" : 8512,
            "type" : "VEC3"
        },
        {
            "bufferView" : 2,
            "componentType" : 5126,
            "count" : 8512,
            "type" : "VEC2"
        },
        {
            "bufferView" : 3,
            "componentType" : 5123,
            "count" : 13056,
            "type" : "SCALAR"
        },
        {
            "bufferView" : 4,
            "componentType" : 5126,
            "count" : 19320,
            "max" : [
                0.988410234451294,
                1,
                1
            ],
            "min" : [
                -1,
                -1,
                -1.0000001192092896
            ],
            "type" : "VEC3"
        },
        {
            "bufferView" : 5,
            "componentType" : 5126,
            "count" : 19320,
            "type" : "VEC3"
        },
        {
            "bufferView" : 6,
            "componentType" : 5126,
            "count" : 19320,
            "type" : "VEC2"
        },
        {
            "bufferView" : 7,
            "componentType" : 5123,
            "count" : 29460,
            "type" : "SCALAR"
        },
        {
            "bufferView" : 8,
            "componentType" : 5126,
            "count" : 512,
            "max" : [
                1.7586246728897095,
                0.5760030746459961,
                1.2152454853057861
            ],
            "min" : [
                -1.764618992805481,
                -0.6111599802970886,
                -1
            ],
            "type" : "VEC3"
        },
        {
            "bufferView" : 9,
            "componentType" : 5126,
            "count" : 512,
            "type" : "VEC3"
        },
        {
            "bufferView" : 10,
            "componentType" : 5126,
            "count" : 512,
            "type" : "VEC2"
        },
        {
            "bufferView" : 11,
            "componentType" : 5123,
            "count" : 888,
            "type" : "SCALAR"
        }
    ],
    "bufferViews" : [
        {
            "buffer" : 0,
            "byteLength" : 102144,
            "byteOffset" : 0
        },
        {
            "buffer" : 0,
            "byteLength" : 102144,
            "byteOffset" : 102144
        },
        {
            "buffer" : 0,
            "byteLength" : 68096,
            "byteOffset" : 204288
        },
        {
            "buffer" : 0,
            "byteLength" : 26112,
            "byteOffset" : 272384
        },
        {
            "buffer" : 0,
            "byteLength" : 231840,
            "byteOffset" : 298496
        },
        {
            "buffer" : 0,
            "byteLength" : 231840,
            "byteOffset" : 530336
        },
        {
            "buffer" : 0,
            "byteLength" : 154560,
            "byteOffset" : 762176
        },
        {
            "buffer" : 0,
            "byteLength" : 58920,
            "byteOffset" : 916736
        },
        {
            "buffer" : 0,
            "byteLength" : 6144,
            "byteOffset" : 975656
        },
        {
            "buffer" : 0,
            "byteLength" : 6144,
            "byteOffset" : 981800
        },
        {
            "buffer" : 0,
            "byteLength" : 4096,
            "byteOffset" : 987944
        },
        {
            "buffer" : 0,
            "byteLength" : 1776,
            "byteOffset" : 992040
        }
    ],
    "buffers" : [
        {
            "byteLength" : 993816,
            "uri" : "data:application/octet-stream;base64,"
        }
    ]
}
