{
    "asset" : {
        "generator" : "Khronos glTF Blender I/O v3.2.43",
        "version" : "2.0"
    },
    "scene" : 0,
    "scenes" : [
        {
            "name" : "Scene",
            "nodes" : [
                2,
                3,
                4
            ]
        }
    ],
    "nodes" : [
        {
            "name" : "RootNode"
        },
        {
            "children" : [
                0
            ],
            "name" : "8ab03d78eafb43ad885d8d8955b8043a.fbx",
            "rotation" : [
                0.7071068286895752,
                0,
                0,
                0.7071067094802856
            ]
        },
        {
            "children" : [
                1
            ],
            "name" : "Sketchfab_model",
            "rotation" : [
                -0.7071068286895752,
                0,
                0,
                0.7071067094802856
            ]
        },
        {
            "mesh" : 0,
            "name" : "ayna_01:pCube3_lambert62_0"
        },
        {
            "mesh" : 1,
            "name" : "ayna_01:pCube3_lambert65_0"
        }
    ],
    "materials" : [
        {
            "doubleSided" : true,
            "name" : "lambert62",
            "pbrMetallicRoughness" : {
                "baseColorFactor" : [
                    0.8103699684143066,
                    0.5542837381362915,
                    0.038921914994716644,
                    1
                ],
                "roughnessFactor" : 0.5714557766914368
            }
        },
        {
            "doubleSided" : true,
            "name" : "lambert65",
            "pbrMetallicRoughness" : {
                "roughnessFactor" : 0
            }
        }
    ],
    "meshes" : [
        {
            "name" : "ayna_01:pCube3_lambert62_0",
            "primitives" : [
                {
                    "attributes" : {
                        "POSITION" : 0,
                        "NORMAL" : 1,
                        "TEXCOORD_0" : 2
                    },
                    "indices" : 3,
                    "material" : 0
                }
            ]
        },
        {
            "name" : "ayna_01:pCube3_lambert65_0",
            "primitives" : [
                {
                    "attributes" : {
                        "POSITION" : 4,
                        "NORMAL" : 5,
                        "TEXCOORD_0" : 6
                    },
                    "indices" : 7,
                    "material" : 1
                }
            ]
        }
    ],
    "accessors" : [
        {
            "bufferView" : 0,
            "componentType" : 5126,
            "count" : 2552,
            "max" : [
                1.3693811893463135,
                1.7640490531921387,
                0.09953177720308304
            ],
            "min" : [
                -1.3693848848342896,
                -1.7251386642456055,
                -0.03966813534498215
            ],
            "type" : "VEC3"
        },
        {
            "bufferView" : 1,
            "componentType" : 5126,
            "count" : 2552,
            "type" : "VEC3"
        },
        {
            "bufferView" : 2,
            "componentType" : 5126,
            "count" : 2552,
            "type" : "VEC2"
        },
        {
            "bufferView" : 3,
            "componentType" : 5123,
            "count" : 7779,
            "type" : "SCALAR"
        },
        {
            "bufferView" : 4,
            "componentType" : 5126,
            "count" : 2013,
            "max" : [
                1.243521809577942,
                1.5841574668884277,
                6.269663572311401e-06
            ],
            "min" : [
                -1.2435277700424194,
                -1.5847487449645996,
                -6.7837536334991455e-06
            ],
            "type" : "VEC3"
        },
        {
            "bufferView" : 5,
            "componentType" : 5126,
            "count" : 2013,
            "type" : "VEC3"
        },
        {
            "bufferView" : 6,
            "componentType" : 5126,
            "count" : 2013,
            "type" : "VEC2"
        },
        {
            "bufferView" : 7,
            "componentType" : 5123,
            "count" : 2013,
            "type" : "SCALAR"
        }
    ],
    "bufferViews" : [
        {
            "buffer" : 0,
            "byteLength" : 30624,
            "byteOffset" : 0
        },
        {
            "buffer" : 0,
            "byteLength" : 30624,
            "byteOffset" : 30624
        },
        {
            "buffer" : 0,
            "byteLength" : 20416,
            "byteOffset" : 61248
        },
        {
            "buffer" : 0,
            "byteLength" : 15558,
            "byteOffset" : 81664
        },
        {
            "buffer" : 0,
            "byteLength" : 24156,
            "byteOffset" : 97224
        },
        {
            "buffer" : 0,
            "byteLength" : 24156,
            "byteOffset" : 121380
        },
        {
            "buffer" : 0,
            "byteLength" : 16104,
            "byteOffset" : 145536
        },
        {
            "buffer" : 0,
            "byteLength" : 4026,
            "byteOffset" : 161640
        }
    ],
    "buffers" : [
        {
            "byteLength" : 165668,
            "uri" : "data:application/octet-stream;base64,"
        }
    ]
}
