{
    "asset" : {
        "generator" : "Khronos glTF Blender I/O v3.2.43",
        "version" : "2.0"
    },
    "scene" : 0,
    "scenes" : [
        {
            "name" : "Scene",
            "nodes" : [
                0,
                1,
                2
            ]
        }
    ],
    "nodes" : [
        {
            "name" : "Cube",
            "rotation" : [
                1,
                0,
                0,
                0
            ],
            "scale" : [
                -0.5153113603591919,
                -0.04960840940475464,
                -1
            ],
            "translation" : [
                0,
                -0.01071232184767723,
                0
            ]
        },
        {
            "mesh" : 0,
            "name" : "Cube.001",
            "rotation" : [
                1,
                0,
                0,
                0
            ],
            "scale" : [
                -0.5153113603591919,
                -0.04960840940475464,
                -1
            ],
            "translation" : [
                0,
                0.054847974330186844,
                0
            ]
        },
        {
            "mesh" : 1,
            "name" : "Plane",
            "scale" : [
                0.5059161186218262,
                1.0683512687683105,
                0.9869407415390015
            ],
            "translation" : [
                0,
                0.08267949521541595,
                0
            ]
        }
    ],
    "materials" : [
        {
            "doubleSided" : true,
            "name" : "Material.002",
            "pbrMetallicRoughness" : {
                "baseColorFactor" : [
                    0.031063320115208626,
                    0.031063320115208626,
                    0.031063320115208626,
                    1
                ],
                "metallicFactor" : 0,
                "roughnessFactor" : 0.5
            }
        },
        {
            "doubleSided" : true,
            "name" : "Material.001",
            "pbrMetallicRoughness" : {
                "baseColorTexture" : {
                    "index" : 0
                },
                "metallicFactor" : 0,
                "roughnessFactor" : 0.5
            }
        }
    ],
    "meshes" : [
        {
            "name" : "Cube.003",
            "primitives" : [
                {
                    "attributes" : {
                        "POSITION" : 0,
                        "NORMAL" : 1,
                        "TEXCOORD_0" : 2
                    },
                    "indices" : 3,
                    "material" : 0
                }
            ]
        },
        {
            "name" : "Plane",
            "primitives" : [
                {
                    "attributes" : {
                        "POSITION" : 4,
                        "NORMAL" : 5,
                        "TEXCOORD_0" : 6
                    },
                    "indices" : 7,
                    "material" : 1
                }
            ]
        }
    ],
    "textures" : [
        {
            "sampler" : 0,
            "source" : 0
        }
    ],
    "images" : [
        {
            "mimeType" : "image/jpeg",
            "name" : "spotify.jpg",
            "uri" : "../../../Downloads/spotify.jpg"
        }
    ],
    "accessors" : [
        {
            "bufferView" : 0,
            "componentType" : 5126,
            "count" : 3476,
            "max" : [
                1,
                0.8713713884353638,
                1
            ],
            "min" : [
                -1,
                -1,
                -1
            ],
            "type" : "VEC3"
        },
        {
            "bufferView" : 1,
            "componentType" : 5126,
            "count" : 3476,
            "type" : "VEC3"
        },
        {
            "bufferView" : 2,
            "componentType" : 5126,
            "count" : 3476,
            "type" : "VEC2"
        },
        {
            "bufferView" : 3,
            "componentType" : 5123,
            "count" : 5214,
            "type" : "SCALAR"
        },
        {
            "bufferView" : 4,
            "componentType" : 5126,
            "count" : 36,
            "max" : [
                0.9858283996582031,
                0.008457380346953869,
                1
            ],
            "min" : [
                -0.9871867299079895,
                -0.004834070801734924,
                -1
            ],
            "type" : "VEC3"
        },
        {
            "bufferView" : 5,
            "componentType" : 5126,
            "count" : 36,
            "type" : "VEC3"
        },
        {
            "bufferView" : 6,
            "componentType" : 5126,
            "count" : 36,
            "type" : "VEC2"
        },
        {
            "bufferView" : 7,
            "componentType" : 5123,
            "count" : 90,
            "type" : "SCALAR"
        }
    ],
    "bufferViews" : [
        {
            "buffer" : 0,
            "byteLength" : 41712,
            "byteOffset" : 0
        },
        {
            "buffer" : 0,
            "byteLength" : 41712,
            "byteOffset" : 41712
        },
        {
            "buffer" : 0,
            "byteLength" : 27808,
            "byteOffset" : 83424
        },
        {
            "buffer" : 0,
            "byteLength" : 10428,
            "byteOffset" : 111232
        },
        {
            "buffer" : 0,
            "byteLength" : 432,
            "byteOffset" : 121660
        },
        {
            "buffer" : 0,
            "byteLength" : 432,
            "byteOffset" : 122092
        },
        {
            "buffer" : 0,
            "byteLength" : 288,
            "byteOffset" : 122524
        },
        {
            "buffer" : 0,
            "byteLength" : 180,
            "byteOffset" : 122812
        }
    ],
    "samplers" : [
        {
            "magFilter" : 9729,
            "minFilter" : 9987
        }
    ],
    "buffers" : [
        {
            "byteLength" : 122992,
            "uri" : "phone3.bin"
        }
    ]
}
