{
    "asset" : {
        "generator" : "Khronos glTF Blender I/O v3.2.43",
        "version" : "2.0"
    },
    "scene" : 0,
    "scenes" : [
        {
            "name" : "Scene",
            "nodes" : [
                3,
                4,
                5
            ]
        }
    ],
    "nodes" : [
        {
            "name" : "Cube_0"
        },
        {
            "children" : [
                0
            ],
            "name" : "GLTF_SceneRootNode",
            "rotation" : [
                0.7071068286895752,
                0,
                0,
                0.7071067094802856
            ]
        },
        {
            "children" : [
                1
            ],
            "name" : "root"
        },
        {
            "children" : [
                2
            ],
            "name" : "Sketchfab_model",
            "rotation" : [
                -0.7071068286895752,
                0,
                0,
                0.7071067094802856
            ]
        },
        {
            "mesh" : 0,
            "name" : "threelogo",
            "rotation" : [
                0.48185911774635315,
                0.37855297327041626,
                -0.4383758306503296,
                0.6575227379798889
            ],
            "scale" : [
                0.3256882429122925,
                0.3256881833076477,
                0.3256882131099701
            ],
            "translation" : [
                -0.6394897103309631,
                2.674614906311035,
                -2.145822048187256
            ]
        },
        {
            "mesh" : 1,
            "name" : "js",
            "rotation" : [
                0.47462794184684753,
                0.46057647466659546,
                -0.41810980439186096,
                0.6227213740348816
            ],
            "scale" : [
                0.1945577710866928,
                0.19455775618553162,
                0.19455775618553162
            ],
            "translation" : [
                -0.5772627592086792,
                2.5340957641601562,
                -2.2303109169006348
            ]
        }
    ],
    "materials" : [
        {
            "alphaMode" : "BLEND",
            "doubleSided" : true,
            "name" : "threelogo",
            "pbrMetallicRoughness" : {
                "baseColorTexture" : {
                    "index" : 0
                },
                "metallicFactor" : 0,
                "roughnessFactor" : 0.5
            }
        },
        {
            "doubleSided" : true,
            "name" : "Material.003",
            "pbrMetallicRoughness" : {
                "baseColorFactor" : [
                    0.800000011920929,
                    0.800000011920929,
                    0.800000011920929,
                    1
                ],
                "metallicFactor" : 0,
                "roughnessFactor" : 0.5
            }
        }
    ],
    "meshes" : [
        {
            "name" : "threelogo",
            "primitives" : [
                {
                    "attributes" : {
                        "POSITION" : 0,
                        "NORMAL" : 1,
                        "TEXCOORD_0" : 2
                    },
                    "indices" : 3,
                    "material" : 0
                }
            ]
        },
        {
            "name" : "js",
            "primitives" : [
                {
                    "attributes" : {
                        "POSITION" : 4,
                        "NORMAL" : 5,
                        "TEXCOORD_0" : 6
                    },
                    "indices" : 7,
                    "material" : 1
                }
            ]
        }
    ],
    "textures" : [
        {
            "sampler" : 0,
            "source" : 0
        }
    ],
    "images" : [
        {
            "bufferView" : 4,
            "mimeType" : "image/png",
            "name" : "threelogo"
        }
    ],
    "accessors" : [
        {
            "bufferView" : 0,
            "componentType" : 5126,
            "count" : 4,
            "max" : [
                0.49609375,
                0,
                0.5
            ],
            "min" : [
                -0.49609375,
                0,
                -0.5
            ],
            "type" : "VEC3"
        },
        {
            "bufferView" : 1,
            "componentType" : 5126,
            "count" : 4,
            "type" : "VEC3"
        },
        {
            "bufferView" : 2,
            "componentType" : 5126,
            "count" : 4,
            "type" : "VEC2"
        },
        {
            "bufferView" : 3,
            "componentType" : 5123,
            "count" : 6,
            "type" : "SCALAR"
        },
        {
            "bufferView" : 5,
            "componentType" : 5126,
            "count" : 345,
            "max" : [
                0.367000013589859,
                0,
                0.43400001525878906
            ],
            "min" : [
                -0.3670000433921814,
                0,
                -0.43400001525878906
            ],
            "type" : "VEC3"
        },
        {
            "bufferView" : 6,
            "componentType" : 5126,
            "count" : 345,
            "type" : "VEC3"
        },
        {
            "bufferView" : 7,
            "componentType" : 5126,
            "count" : 345,
            "type" : "VEC2"
        },
        {
            "bufferView" : 8,
            "componentType" : 5123,
            "count" : 750,
            "type" : "SCALAR"
        }
    ],
    "bufferViews" : [
        {
            "buffer" : 0,
            "byteLength" : 48,
            "byteOffset" : 0
        },
        {
            "buffer" : 0,
            "byteLength" : 48,
            "byteOffset" : 48
        },
        {
            "buffer" : 0,
            "byteLength" : 32,
            "byteOffset" : 96
        },
        {
            "buffer" : 0,
            "byteLength" : 12,
            "byteOffset" : 128
        },
        {
            "buffer" : 0,
            "byteLength" : 33276,
            "byteOffset" : 140
        },
        {
            "buffer" : 0,
            "byteLength" : 4140,
            "byteOffset" : 33416
        },
        {
            "buffer" : 0,
            "byteLength" : 4140,
            "byteOffset" : 37556
        },
        {
            "buffer" : 0,
            "byteLength" : 2760,
            "byteOffset" : 41696
        },
        {
            "buffer" : 0,
            "byteLength" : 1500,
            "byteOffset" : 44456
        }
    ],
    "samplers" : [
        {
            "magFilter" : 9729,
            "minFilter" : 9987,
            "wrapS" : 33071,
            "wrapT" : 33071
        }
    ],
    "buffers" : [
        {
            "byteLength" : 45956,
            "uri" : "data:application/octet-stream;base64,"
        }
    ]
}
