{
  "accessors": [
    {
      "bufferView": 2,
      "componentType": 5126,
      "count": 2189,
      "max": [
        2.783607006072998,
        7.6529860496521,
        0.07318228483200073
      ],
      "min": [
        0.04484093189239502,
        4.1637983322143555,
        -0.06601762771606445
      ],
      "type": "VEC3"
    },
    {
      "bufferView": 2,
      "byteOffset": 26268,
      "componentType": 5126,
      "count": 2189,
      "max": [
        1.0,
        1.0,
        0.9999998807907104
      ],
      "min": [
        -1.0,
        -1.0,
        -1.0
      ],
      "type": "VEC3"
    },
    {
      "bufferView": 1,
      "componentType": 5126,
      "count": 2189,
      "max": [
        1.0,
        1.0
      ],
      "min": [
        0.0,
        0.0
      ],
      "type": "VEC2"
    },
    {
      "bufferView": 0,
      "componentType": 5125,
      "count": 7779,
      "type": "SCALAR"
    },
    {
      "bufferView": 2,
      "byteOffset": 52536,
      "componentType": 5126,
      "count": 1437,
      "max": [
        2.6577486991882324,
        7.492845058441162,
        -0.054009974002838135
      ],
      "min": [
        0.1706991195678711,
        4.323938846588135,
        -0.054023027420043945
      ],
      "type": "VEC3"
    },
    {
      "bufferView": 2,
      "byteOffset": 69780,
      "componentType": 5126,
      "count": 1437,
      "max": [
        0.0005996860563755035,
        0.0001459081977372989,
        1.0
      ],
      "min": [
        -0.0005998576525598764,
        -0.00014590879436582327,
        0.9999998211860657
      ],
      "type": "VEC3"
    },
    {
      "bufferView": 1,
      "byteOffset": 17512,
      "componentType": 5126,
      "count": 1437,
      "max": [
        1.0,
        1.0
      ],
      "min": [
        0.0,
        0.0
      ],
      "type": "VEC2"
    },
    {
      "bufferView": 0,
      "byteOffset": 31116,
      "componentType": 5125,
      "count": 2013,
      "type": "SCALAR"
    }
  ],
  "asset": {
    "extras": {
      "author": "Habib Siddick (https://sketchfab.com/habibshiddick3)",
      "license": "CC-BY-4.0 (http://creativecommons.org/licenses/by/4.0/)",
      "source": "https://sketchfab.com/3d-models/toon-mirror-8999f608141042869584d42cd8546d32",
      "title": "Toon Mirror"
    },
    "generator": "Sketchfab-12.68.0",
    "version": "2.0"
  },
  "bufferViews": [
    {
      "buffer": 0,
      "byteLength": 39168,
      "name": "floatBufferViews",
      "target": 34963
    },
    {
      "buffer": 0,
      "byteLength": 29008,
      "byteOffset": 39168,
      "byteStride": 8,
      "name": "floatBufferViews",
      "target": 34962
    },
    {
      "buffer": 0,
      "byteLength": 87024,
      "byteOffset": 68176,
      "byteStride": 12,
      "name": "floatBufferViews",
      "target": 34962
    }
  ],
  "buffers": [
    {
      "byteLength": 155200,
      "uri": "scene.bin"
    }
  ],
  "materials": [
    {
      "doubleSided": true,
      "name": "lambert62",
      "pbrMetallicRoughness": {
        "baseColorFactor": [
          0.810369951,
          0.5542837204,
          0.0389219135,
          1.0
        ],
        "roughnessFactor": 0.5714557927
      }
    },
    {
      "doubleSided": true,
      "name": "lambert65",
      "pbrMetallicRoughness": {
        "roughnessFactor": 0.0
      }
    }
  ],
  "meshes": [
    {
      "name": "ayna_01:pCube3_lambert62_0",
      "primitives": [
        {
          "attributes": {
            "NORMAL": 1,
            "POSITION": 0,
            "TEXCOORD_0": 2
          },
          "indices": 3,
          "material": 0,
          "mode": 4
        }
      ]
    },
    {
      "name": "ayna_01:pCube3_lambert65_0",
      "primitives": [
        {
          "attributes": {
            "NORMAL": 5,
            "POSITION": 4,
            "TEXCOORD_0": 6
          },
          "indices": 7,
          "material": 1,
          "mode": 4
        }
      ]
    }
  ],
  "nodes": [
    {
      "children": [
        1
      ],
      "matrix": [
        1.0,
        0.0,
        0.0,
        0.0,
        0.0,
        2.220446049250313e-16,
        -1.0,
        0.0,
        0.0,
        1.0,
        2.220446049250313e-16,
        0.0,
        0.0,
        0.0,
        0.0,
        1.0
      ],
      "name": "Sketchfab_model"
    },
    {
      "children": [
        2
      ],
      "matrix": [
        1.0,
        0.0,
        0.0,
        0.0,
        0.0,
        0.0,
        1.0,
        0.0,
        0.0,
        -1.0,
        0.0,
        0.0,
        0.0,
        0.0,
        0.0,
        1.0
      ],
      "name": "8ab03d78eafb43ad885d8d8955b8043a.fbx"
    },
    {
      "children": [
        3
      ],
      "name": "RootNode"
    },
    {
      "children": [
        4,
        5
      ],
      "matrix": [
        1.0423929691314697,
        0.0,
        0.0,
        0.0,
        0.0,
        1.0423929691314697,
        0.0,
        0.0,
        0.0,
        0.0,
        1.0423929691314697,
        0.0,
        1.9880517721176147,
        8.881784197001252e-16,
        0.9005799889564514,
        1.0
      ],
      "name": "ayna_01:pCube3"
    },
    {
      "mesh": 0,
      "name": "ayna_01:pCube3_lambert62_0"
    },
    {
      "mesh": 1,
      "name": "ayna_01:pCube3_lambert65_0"
    }
  ],
  "scene": 0,
  "scenes": [
    {
      "name": "Sketchfab_Scene",
      "nodes": [
        0
      ]
    }
  ]
}
